<?xml version="1.0" encoding="iso-8859-1"?>
<!-- Uploaded to: SVG Repo, www.svgrepo.com, Generator: SVG Repo Mixer Tools -->
<svg fill="currentColor" version="1.1" id="Layer_1" xmlns="http://www.w3.org/2000/svg" xmlns:xlink="http://www.w3.org/1999/xlink" 
	 viewBox="0 0 295.238 295.238" xml:space="preserve">
<g>
	<g>
		<g>
			<path d="M147.619,209.524c34.133,0,61.905-27.771,61.905-61.905c0-34.134-27.771-61.905-61.905-61.905
				c-34.134,0-61.905,27.771-61.905,61.905C85.714,181.753,113.486,209.524,147.619,209.524z M147.619,95.238
				c28.881,0,52.381,23.5,52.381,52.381C200,176.5,176.5,200,147.619,200s-52.381-23.5-52.381-52.381
				C95.238,118.738,118.738,95.238,147.619,95.238z"/>
			<path d="M147.619,0c-24.924,0-48.738,6.143-69.838,17.486L53.914,6.857l-3.871,8.7l17.633,7.852
				c-5.352,3.457-10.481,7.286-15.376,11.448l-25.605-5.438l-1.981,9.314l19.029,4.043c-4.495,4.476-8.738,9.262-12.705,14.367
				H4.762v9.524h24.667l3.995,19.981l9.338-1.871l-4.329-21.643c3.748-4.843,7.771-9.376,12.029-13.614l2.862,16.576l9.386-1.624
				L58.796,41.82c4.881-4.124,10.029-7.852,15.386-11.229l2.038,17.571l9.457-1.095l-2.514-21.662
				C102.69,15.1,124.652,9.524,147.619,9.524c76.148,0,138.095,61.948,138.095,138.095s-61.948,138.095-138.095,138.095
				c-48.619,0-93.148-25.362-118.133-66.667h27.657v-9.524H15.91l-15.524,36.22l8.752,3.752l11.481-26.786
				c26.552,44.886,74.538,72.529,127,72.529c81.395,0,147.619-66.224,147.619-147.619S229.014,0,147.619,0z"/>
			<path d="M157.143,171.429h-19.048c-5.252,0-9.524-4.271-9.524-9.524h-9.524c0,10.505,8.543,19.048,19.048,19.048h4.762v9.524
				h9.524v-9.524h4.762c10.505,0,19.048-8.543,19.048-19.048s-8.543-19.048-19.048-19.048h-19.048c-5.252,0-9.524-4.271-9.524-9.524
				c0-5.252,4.271-9.524,9.524-9.524h19.048c5.252,0,9.524,4.271,9.524,9.524h9.524c0-10.505-8.543-19.048-19.048-19.048h-4.762
				v-9.524h-9.524v9.524h-4.762c-10.505,0-19.048,8.543-19.048,19.048s8.543,19.048,19.048,19.048h19.048
				c5.252,0,9.524,4.271,9.524,9.524C166.667,167.157,162.395,171.429,157.143,171.429z"/>
			<path d="M19.048,152.381v9.524h36.567l-6.667,9.524H9.524v9.524h32.757l-8.09,11.557l7.805,5.457l11.624-16.605
				c14.09,39.452,51.4,66.257,94,66.257c55.143,0,100-44.857,100-100s-44.857-100-100-100c-42.6,0-79.91,26.805-93.995,66.257
				L42,97.271l-7.805,5.457l8.086,11.557H19.048v9.524h29.9l6.667,9.524H28.571v9.524h33.71l3.333,4.762l-3.333,4.762H19.048z
				 M60.514,123.724c10.743-39.291,46.229-66.581,87.105-66.581c49.89,0,90.476,40.586,90.476,90.476
				c0,49.89-40.586,90.476-90.476,90.476c-40.876,0-76.362-27.29-87.105-66.581l16.729-23.895L60.514,123.724z"/>
			<rect y="114.286" width="9.524" height="9.524"/>
			<rect x="9.524" y="133.333" width="9.524" height="9.524"/>
			<rect y="152.381" width="9.524" height="9.524"/>
		</g>
	</g>
</g>
</svg>